 <svg  version="1.0" xmlns="http://www.w3.org/2000/svg"  width="1350.000000pt" height="1350.000000pt" viewBox="0 0 1350.000000 1350.000000"  preserveAspectRatio="xMidYMid meet">  <g transform="translate(0.000000,1350.000000) scale(0.100000,-0.100000)" fill="#ffffff" stroke="none"> <path d="M2371 8178 c8 -7 30 -40 48 -73 59 -107 83 -145 92 -145 5 0 9 -11 9 -25 0 -14 4 -25 8 -25 5 0 20 -22 33 -50 14 -29 31 -49 41 -50 11 0 15 -6 11 -21 -4 -14 0 -25 11 -31 9 -5 16 -18 16 -28 0 -10 5 -22 10 -25 6 -4 20 -25 31 -48 12 -23 28 -46 35 -50 8 -4 14 -17 14 -27 0 -10 5 -22 11 -25 5 -4 14 -17 20 -28 5 -12 15 -31 21 -42 7 -11 24 -38 38 -60 14 -22 34 -57 45 -79 11 -21 26 -40 33 -43 6 -3 12 -15 12 -28 0 -13 7 -25 15 -29 8 -3 15 -14 15 -23 0 -10 14 -33 30 -51 17 -18 30 -42 30 -53 0 -10 4 -19 9 -19 5 0 14 -12 20 -27 12 -30 29 -60 47 -80 7 -7 21 -32 33 -55 11 -24 34 -59 50 -78 l30 -35 0 449 c0 435 -1 448 -20 453 -10 3 -19 8 -19 12 0 3 -22 17 -50 30 -27 13 -50 27 -50 31 0 5 -12 13 -27 19 -31 12 -96 49 -158 90 -22 14 -58 35 -80 46 -22 11 -42 23 -45 26 -10 11 -158 97 -178 103 -12 4 -22 11 -22 16 0 13 -112 71 -160 84 -22 6 -23 5 -9 -6z m183 -157 c3 -5 -1 -12 -10 -15 -22 -9 -24 -8 -24 9 0 16 25 21 34 6z m337 -186 c-1 -15 -24 -12 -29 3 -3 9 2 13 12 10 10 -1 17 -7 17 -13z m-115 -30 c4 -8 14 -15 24 -15 26 0 35 -19 14 -27 -10 -4 -22 0 -29 10 -7 10 -20 17 -29 17 -16 0 -21 11 -9 23 11 11 23 8 29 -8z m154 -46 c0 -20 -15 -26 -25 -9 -9 15 3 43 15 35 5 -3 10 -15 10 -26z m-230 -9 c12 -8 11 -10 -7 -10 -13 0 -23 5 -23 10 0 13 11 13 30 0z m338 -2 c14 -14 16 -48 2 -48 -15 0 -80 33 -80 41 0 7 20 13 56 18 5 0 15 -4 22 -11z m105 -46 c33 -29 14 -92 -28 -92 -38 0 -39 18 0 26 37 7 41 14 25 45 -7 12 -21 19 -40 19 -30 0 -41 14 -17 23 16 5 38 -2 60 -21z m-175 6 c19 -19 14 -28 -13 -28 -27 0 -28 1 -19 24 7 19 16 20 32 4z m-148 -18 c11 -7 7 -10 -17 -10 -18 0 -33 5 -33 10 0 13 30 13 50 0z m93 -20 c11 0 17 -8 17 -25 0 -25 -23 -35 -35 -15 -3 6 -15 10 -25 10 -10 0 -22 5 -25 10 -10 17 6 32 29 26 11 -3 29 -6 39 -6z m147 -39 c-13 -25 -70 -30 -70 -6 0 10 11 15 35 15 26 0 35 4 36 18 0 9 3 12 5 5 3 -7 0 -21 -6 -32z m-220 0 c0 -15 -19 -23 -38 -16 -14 5 -14 7 -2 15 19 12 40 13 40 1z m130 -61 c0 -6 -11 -15 -24 -20 -13 -5 -26 -15 -29 -22 -2 -7 -7 -10 -11 -6 -12 11 25 58 45 58 11 0 19 -5 19 -10z m78 -62 c-3 -7 -15 -15 -28 -16 -22 -4 -31 -9 -65 -40 -18 -16 -20 -2 -2 20 31 38 105 66 95 36z m117 -218 c0 -7 -6 -15 -12 -17 -8 -3 -13 4 -13 17 0 13 5 20 13 18 6 -3 12 -11 12 -18z m-116 -31 c-15 -9 -32 -2 -24 11 3 5 13 6 21 3 12 -4 13 -8 3 -14z"/> <path d="M2300 8165 c0 -8 7 -15 15 -15 8 0 15 -4 15 -10 0 -18 -51 -60 -72 -60 -17 0 -19 -3 -10 -12 7 -7 12 -18 12 -25 0 -17 -27 -17 -33 0 -3 9 -9 7 -24 -5 -11 -10 -27 -18 -36 -18 -9 0 -17 -7 -17 -15 0 -10 -10 -15 -30 -15 -20 0 -30 -5 -30 -15 0 -9 -9 -15 -25 -15 -29 0 -32 -8 -7 -26 14 -10 15 -15 4 -26 -11 -11 -15 -10 -23 5 -11 20 -49 23 -49 4 0 -7 -8 -17 -19 -22 -10 -6 -45 -23 -77 -40 -54 -28 -56 -30 -29 -33 15 -2 39 -11 52 -19 18 -12 26 -13 38 -3 8 7 23 9 32 5 16 -6 15 -8 -7 -25 -14 -11 -37 -20 -52 -20 -16 0 -28 -4 -28 -10 0 -5 -16 -12 -36 -16 -28 -5 -39 -3 -46 10 -5 9 -17 16 -26 16 -10 0 -23 5 -28 10 -8 8 -15 6 -24 -5 -7 -8 -21 -15 -31 -15 -24 0 -33 -18 -18 -36 8 -10 21 -13 39 -9 23 5 29 2 34 -19 8 -33 26 -34 26 -2 0 27 15 42 25 26 8 -13 71 -13 97 1 15 8 22 8 28 -1 4 -7 17 -10 29 -7 12 3 24 1 27 -4 8 -13 -39 -29 -53 -17 -7 6 -14 5 -18 -2 -3 -5 -33 -10 -66 -10 -32 0 -59 -2 -59 -5 0 -2 5 -16 12 -30 12 -27 26 -30 77 -15 40 11 49 7 31 -15 -8 -9 -22 -14 -33 -11 -11 2 -27 0 -37 -7 -14 -8 -22 -8 -32 1 -8 6 -24 9 -36 5 -13 -3 -22 -1 -22 6 0 6 5 11 10 11 6 0 10 9 10 20 0 13 -7 20 -20 20 -11 0 -20 5 -20 10 0 12 -40 13 -59 1 -11 -7 -10 -11 7 -20 11 -6 28 -11 37 -11 9 0 13 -4 10 -10 -3 -5 -15 -10 -26 -10 -10 0 -28 -5 -38 -12 -15 -9 -22 -8 -36 5 -15 16 -15 19 2 49 10 18 24 37 31 41 6 4 12 12 12 17 0 13 -37 13 -45 -1 -4 -5 -18 -14 -31 -19 -17 -7 -24 -17 -24 -37 0 -53 11 -73 37 -73 29 0 27 -23 -3 -29 -10 -2 -21 -7 -25 -12 -8 -13 -5 -252 4 -266 4 -6 3 -14 -2 -18 -6 -3 -8 -72 -7 -168 3 -151 -5 -227 -26 -252 -11 -12 -10 -25 2 -25 6 0 10 6 10 13 0 7 9 18 20 25 11 7 20 19 20 27 0 8 4 15 9 15 5 0 14 12 20 28 6 15 20 41 31 57 11 17 24 40 29 52 5 11 15 24 20 28 6 3 11 15 11 26 0 10 4 19 9 19 5 0 19 19 31 43 12 23 35 61 51 85 16 24 29 50 29 58 0 7 4 14 9 14 5 0 13 10 17 22 3 12 13 28 20 36 8 7 14 20 14 28 0 8 4 14 9 14 5 0 14 12 20 28 6 15 25 50 41 77 17 28 36 61 43 75 6 14 15 27 19 30 4 3 12 17 17 30 13 29 31 59 49 78 6 7 12 18 12 24 0 5 14 30 30 55 17 24 30 46 30 48 0 7 122 209 137 226 7 8 13 21 13 29 0 7 7 18 17 25 15 11 14 14 -5 33 -26 26 -42 28 -42 7z m-100 -209 c0 -8 -4 -17 -9 -21 -12 -7 -24 12 -16 25 9 15 25 12 25 -4z m-83 -30 c-4 -9 -13 -13 -21 -10 -12 5 -13 10 -5 26 13 24 35 9 26 -16z m11 -46 c46 1 32 -16 -19 -23 -22 -3 -46 -13 -54 -23 -12 -17 -14 -17 -38 -1 -15 9 -33 17 -42 17 -8 0 -15 4 -15 8 0 21 25 29 78 25 31 -2 72 -3 90 -3z m-78 -196 c0 -9 -7 -14 -17 -12 -25 5 -28 28 -4 28 12 0 21 -6 21 -16z m-287 -134 c20 -23 25 -52 6 -33 -7 7 -24 10 -38 7 -14 -2 -39 0 -56 5 -21 7 -24 10 -10 10 11 1 31 8 45 15 34 19 33 19 53 -4z m90 -9 c14 -6 28 -19 32 -30 3 -12 15 -21 26 -21 10 0 19 -4 19 -10 0 -5 -16 -10 -35 -10 -28 0 -35 4 -35 20 0 13 -10 24 -26 30 -14 6 -22 14 -19 20 8 12 8 12 38 1z m-96 -77 c-3 -4 -14 -3 -24 0 -15 6 -15 8 -3 16 16 10 39 -4 27 -16z m-62 -43 c7 -12 -31 -25 -45 -16 -5 3 -10 10 -10 16 0 12 47 12 55 0z m97 -52 c-11 -28 -26 -29 -30 -1 -3 17 2 22 17 22 16 0 19 -4 13 -21z m-97 -39 c7 -12 -39 -24 -61 -16 -8 3 -12 10 -9 16 8 13 62 13 70 0z"/> <path d="M2245 8139 c-10 -15 1 -22 24 -14 12 3 19 11 16 16 -8 12 -32 11 -40 -2z"/> <path d="M10645 8115 c-22 -8 -48 -15 -57 -15 -17 0 -141 -56 -183 -83 -103 -64 -197 -153 -267 -252 -42 -59 -108 -196 -108 -223 0 -10 -3 -22 -7 -26 -13 -13 -34 -176 -33 -251 2 -132 41 -296 95 -395 7 -14 21 -41 32 -60 10 -19 20 -37 23 -40 3 -3 13 -17 22 -31 49 -77 203 -211 291 -251 125 -59 158 -69 291 -84 163 -19 307 -1 436 53 19 9 42 19 50 24 8 5 26 14 39 20 70 29 226 168 276 244 111 169 159 326 159 515 -1 97 -15 211 -30 242 -8 15 -14 36 -14 47 0 21 -14 51 -70 155 -47 87 -146 197 -240 268 -45 34 -208 118 -229 118 -9 0 -29 7 -46 16 -44 24 -373 31 -430 9z m355 -135 c95 -26 176 -62 238 -105 81 -56 212 -194 212 -224 0 -6 3 -11 8 -11 7 0 36 -59 65 -135 51 -133 46 -373 -9 -505 -16 -39 -20 -45 -55 -110 -33 -62 -35 -64 -115 -145 -59 -58 -178 -145 -201 -145 -3 0 -19 -6 -36 -14 -130 -57 -389 -60 -512 -6 -11 5 -38 17 -60 26 -91 41 -213 150 -274 245 -45 72 -90 175 -102 234 -31 152 -31 156 -20 238 18 137 38 213 66 257 5 8 17 30 26 48 60 115 217 263 329 308 122 48 194 63 300 59 52 -1 115 -8 140 -15z"/> <path d="M2195 8111 c-3 -5 -1 -12 5 -16 12 -7 30 2 30 16 0 12 -27 12 -35 0z"/> <path d="M2145 8081 c-3 -5 -1 -12 5 -16 12 -7 30 2 30 16 0 12 -27 12 -35 0z"/> <path d="M3697 8084 c-4 -4 -7 -375 -7 -824 0 -621 3 -819 12 -828 9 -9 135 -12 504 -12 562 0 527 -6 522 84 l-3 51 -445 2 -445 2 -5 763 -5 763 -60 3 c-34 2 -64 0 -68 -4z"/> <path d="M5007 8083 c-4 -3 -7 -374 -7 -823 0 -621 3 -819 12 -828 18 -18 103 -15 122 4 14 14 16 102 16 823 0 614 -3 810 -12 819 -13 13 -120 17 -131 5z"/> <path d="M5396 8081 c-3 -5 5 -28 19 -52 14 -24 29 -53 35 -64 6 -11 19 -33 30 -50 11 -16 23 -37 27 -45 3 -8 9 -17 13 -20 5 -5 73 -113 114 -183 30 -53 220 -366 238 -395 10 -15 22 -36 28 -47 6 -11 19 -33 30 -50 11 -16 24 -39 30 -50 23 -42 38 -67 49 -78 8 -8 11 -102 11 -303 0 -340 -4 -327 89 -322 l56 3 3 294 c2 228 5 298 16 310 7 9 16 23 20 31 3 8 15 29 26 45 11 17 23 37 27 45 4 8 19 33 35 54 15 21 28 43 28 47 0 4 19 36 43 71 58 88 66 100 77 123 6 11 19 34 30 50 11 17 24 39 30 50 6 11 19 34 30 50 11 17 24 39 30 50 6 11 19 34 30 50 11 17 23 38 26 48 4 9 10 17 14 17 5 0 12 10 16 23 4 12 17 36 29 52 13 17 36 53 52 81 15 28 43 75 60 105 18 30 33 57 33 62 0 4 -36 7 -79 7 l-79 0 -49 -81 c-26 -44 -52 -88 -58 -97 -14 -24 -103 -173 -118 -197 -47 -76 -63 -103 -73 -121 -6 -12 -58 -98 -115 -193 -57 -94 -113 -187 -123 -206 -23 -41 -33 -43 -46 -12 -6 12 -19 36 -30 52 -11 17 -24 39 -30 50 -6 11 -19 34 -30 50 -11 17 -24 39 -30 50 -6 11 -19 34 -30 50 -11 17 -24 39 -30 50 -6 11 -19 34 -30 50 -11 17 -24 39 -30 50 -6 11 -19 34 -30 50 -11 17 -24 39 -30 50 -6 11 -19 34 -30 50 -11 17 -24 39 -30 50 -6 11 -19 34 -30 50 -11 17 -24 39 -30 50 -6 11 -19 34 -30 50 -11 17 -24 39 -30 50 -6 11 -19 34 -30 50 -11 17 -23 36 -26 43 -7 14 -140 17 -148 3z"/> <path d="M7292 8078 c-7 -7 -12 -15 -12 -19 0 -4 -16 -42 -36 -86 -54 -117 -99 -220 -141 -323 -18 -45 -25 -61 -62 -143 -17 -38 -31 -71 -31 -74 0 -3 -9 -24 -19 -47 -25 -53 -72 -162 -122 -281 -4 -11 -21 -49 -37 -85 -17 -36 -47 -105 -67 -155 -39 -97 -50 -121 -88 -205 -55 -121 -89 -211 -83 -225 6 -15 87 -21 120 -9 17 7 52 79 129 267 21 50 48 109 62 137 l14 25 419 3 419 2 18 -42 c10 -24 31 -71 47 -106 15 -34 28 -65 28 -69 0 -7 50 -116 77 -168 23 -45 42 -55 100 -55 63 0 74 14 50 63 -16 34 -38 84 -62 142 -8 19 -22 51 -30 70 -8 19 -21 51 -29 70 -9 20 -22 51 -30 70 -38 88 -49 112 -62 138 -8 16 -14 34 -14 40 0 11 -38 97 -76 170 -8 16 -14 35 -14 42 0 7 -8 28 -17 47 -9 18 -22 45 -30 60 -7 14 -13 33 -13 41 0 8 -7 20 -15 27 -8 7 -15 21 -15 30 0 10 -6 31 -14 47 -20 39 -67 146 -91 208 -7 17 -20 47 -29 68 -17 40 -35 81 -59 137 -89 209 -84 200 -131 200 -23 0 -47 -5 -54 -12z m74 -265 c9 -45 69 -192 111 -275 7 -14 13 -31 13 -36 0 -6 14 -41 31 -79 35 -78 53 -119 74 -168 8 -19 21 -50 29 -67 8 -18 22 -53 31 -78 10 -25 25 -59 33 -77 9 -18 13 -35 9 -39 -3 -4 -166 -8 -362 -10 -342 -3 -355 -3 -355 16 0 10 6 31 14 47 8 15 21 44 29 63 8 19 23 53 33 75 9 22 23 54 30 70 6 17 19 47 28 68 9 20 23 53 31 72 28 68 47 110 61 138 8 16 14 37 14 47 0 9 7 23 15 30 8 7 15 20 15 29 0 10 14 44 30 76 17 32 30 64 30 70 0 15 29 55 40 55 5 0 12 -12 16 -27z"/> <path d="M8316 8074 c-3 -9 -6 -379 -6 -824 0 -685 2 -809 14 -819 8 -7 37 -11 68 -9 l53 3 3 683 c2 535 5 682 15 682 6 0 29 -26 49 -58 21 -31 48 -68 60 -82 24 -25 65 -77 178 -222 35 -46 69 -87 76 -93 6 -5 33 -39 59 -75 27 -36 52 -67 55 -70 3 -3 30 -36 60 -75 30 -38 65 -81 77 -95 27 -31 74 -91 155 -195 34 -44 67 -84 74 -90 6 -5 33 -39 60 -75 26 -36 53 -69 60 -75 6 -5 32 -37 57 -71 68 -90 115 -114 151 -78 14 14 16 102 16 819 0 442 -3 810 -6 819 -5 12 -21 16 -74 16 -62 0 -68 -2 -72 -22 -2 -13 -4 -317 -3 -675 0 -516 -3 -653 -12 -653 -7 0 -13 6 -13 14 0 8 -4 16 -9 18 -5 2 -32 35 -62 73 -29 39 -58 75 -64 80 -7 6 -34 39 -61 75 -26 36 -53 70 -59 75 -7 6 -27 30 -45 55 -45 60 -183 234 -191 240 -4 3 -30 36 -60 75 -29 38 -60 78 -70 90 -10 11 -64 79 -121 150 -56 72 -108 135 -114 140 -6 6 -33 39 -60 75 -26 36 -53 70 -59 76 -6 6 -28 34 -50 62 -36 48 -42 52 -81 52 -29 0 -44 -5 -48 -16z"/> <path d="M2090 8044 c0 -9 7 -14 17 -12 25 5 28 28 4 28 -12 0 -21 -6 -21 -16z"/> <path d="M2034 8015 c-4 -8 -14 -15 -24 -15 -26 0 -35 -19 -14 -27 10 -4 21 0 28 9 6 9 20 17 30 19 11 2 21 10 24 17 6 18 -37 15 -44 -3z"/> <path d="M1934 7955 c-4 -8 -17 -15 -30 -15 -15 0 -24 -6 -24 -15 0 -8 9 -15 20 -15 11 0 23 7 26 15 4 8 15 15 25 15 10 0 19 7 19 15 0 8 -7 15 -15 15 -9 0 -18 -7 -21 -15z"/> <path d="M1835 7901 c-3 -5 -1 -12 5 -16 12 -7 30 2 30 16 0 12 -27 12 -35 0z"/> <path d="M1785 7871 c-3 -5 -1 -12 5 -16 12 -7 30 2 30 16 0 12 -27 12 -35 0z"/> <path d="M1730 7835 c0 -10 7 -15 18 -13 21 4 19 22 -2 26 -10 2 -16 -3 -16 -13z"/> <path d="M1677 7814 c-10 -11 3 -24 24 -24 10 0 19 7 19 15 0 15 -31 21 -43 9z"/> <path d="M1790 7801 c0 -12 56 -34 72 -28 8 4 5 8 -9 12 -13 4 -23 11 -23 16 0 5 -9 9 -20 9 -11 0 -20 -4 -20 -9z"/> <path d="M1625 7780 c-8 -12 20 -24 35 -15 5 3 10 10 10 16 0 12 -37 12 -45 -1z"/> <path d="M1580 7744 c0 -17 22 -14 28 4 2 7 -3 12 -12 12 -9 0 -16 -7 -16 -16z"/> <path d="M1606 6793 c-9 -9 13 -43 28 -43 8 0 19 -6 25 -14 7 -8 31 -24 54 -36 23 -12 61 -35 85 -51 24 -16 47 -29 53 -29 5 0 9 -4 9 -9 0 -5 10 -13 23 -17 12 -3 40 -19 62 -33 22 -15 47 -30 55 -34 8 -4 29 -16 45 -27 17 -10 50 -29 75 -42 25 -13 46 -26 48 -30 2 -4 24 -18 50 -30 26 -13 53 -29 60 -35 7 -7 18 -13 24 -13 6 0 20 -7 29 -16 10 -9 30 -16 44 -16 14 0 34 7 44 16 9 9 23 16 29 16 6 0 17 6 24 13 7 7 34 24 61 37 26 13 47 27 47 31 0 4 11 10 25 13 14 4 25 11 25 16 0 6 5 10 11 10 12 0 130 69 139 81 3 3 15 9 28 13 12 4 22 12 22 17 0 5 5 9 11 9 10 0 123 63 179 100 8 6 25 14 38 20 12 5 22 14 22 20 0 5 6 10 14 10 15 0 66 37 66 48 0 8 -1546 13 -1554 5z m564 -34 c57 5 900 6 900 1 0 -12 -78 -43 -89 -36 -6 4 -11 0 -11 -8 0 -23 -31 -19 -37 4 -6 23 -31 27 -39 5 -7 -17 -35 -20 -51 -4 -8 8 -16 7 -30 -2 -12 -7 -28 -9 -39 -4 -30 12 -56 17 -99 16 -183 -1 -195 -2 -203 -18 -8 -14 -13 -13 -40 7 -25 19 -36 21 -54 13 -13 -5 -52 -9 -88 -7 -77 3 -150 -21 -150 -49 0 -23 26 -33 45 -17 12 10 18 10 30 0 20 -17 19 -40 -2 -41 -44 -4 -89 4 -96 17 -4 8 -24 14 -43 14 -49 0 -39 21 19 40 48 15 61 35 31 47 -10 4 -22 -1 -29 -10 -13 -17 -65 -24 -65 -8 0 4 -40 9 -90 9 -51 1 -90 -3 -90 -9 0 -5 7 -9 15 -9 8 0 15 -4 15 -10 0 -5 -7 -10 -15 -10 -8 0 -15 4 -15 8 0 10 -59 32 -86 32 -10 0 -37 7 -59 14 l-40 14 40 5 c22 2 132 2 245 0 113 -3 212 -5 220 -4z m260 -59 c0 -6 -7 -13 -15 -16 -20 -8 -48 3 -40 16 8 13 55 13 55 0z m200 0 c0 -5 -7 -10 -15 -10 -8 0 -15 5 -15 10 0 6 7 10 15 10 8 0 15 -4 15 -10z m-60 -32 c0 -5 -13 -8 -30 -8 -23 0 -30 -5 -30 -19 0 -11 9 -21 21 -24 25 -7 16 -27 -11 -27 -64 0 -68 44 -7 81 39 24 56 23 57 -3z m135 22 c-3 -5 -15 -10 -26 -10 -10 0 -19 5 -19 10 0 6 12 10 26 10 14 0 23 -4 19 -10z m215 -15 c0 -8 -4 -15 -10 -15 -5 0 -10 7 -10 15 0 8 5 15 10 15 6 0 10 -7 10 -15z m-920 -35 c9 -16 8 -20 -5 -20 -8 0 -15 9 -15 20 0 11 2 20 5 20 2 0 9 -9 15 -20z m390 -4 c0 -21 -11 -25 -38 -15 -28 11 -20 29 14 29 14 0 24 -6 24 -14z m-330 -67 c0 -24 -23 -21 -28 4 -2 10 3 17 12 17 10 0 16 -9 16 -21z m80 11 c0 -5 -9 -10 -21 -10 -11 0 -17 5 -14 10 3 6 13 10 21 10 8 0 14 -4 14 -10z m184 -26 c9 -3 16 -10 16 -16 0 -14 -63 -5 -68 10 -4 13 25 16 52 6z m186 -14 c0 -5 -7 -10 -15 -10 -8 0 -15 5 -15 10 0 6 7 10 15 10 8 0 15 -4 15 -10z m-65 -18 c0 -18 -20 -15 -23 4 -3 10 1 15 10 12 7 -3 13 -10 13 -16z m115 -62 c0 -5 -9 -10 -21 -10 -11 0 -17 5 -14 10 3 6 13 10 21 10 8 0 14 -4 14 -10z m-140 -35 c0 -16 -20 -19 -60 -8 l-25 7 25 7 c41 12 60 10 60 -6z"/> <path d="M4316 5884 c-12 -11 -16 -35 -16 -85 l0 -69 -22 14 c-63 39 -153 26 -205 -30 -38 -42 -47 -78 -38 -149 5 -43 13 -58 43 -87 20 -20 47 -41 59 -47 31 -16 87 -14 128 6 33 16 36 16 48 -1 7 -10 22 -17 33 -14 18 3 19 15 22 232 2 177 -1 231 -10 238 -18 11 -25 10 -42 -8z m-59 -194 c44 -26 56 -54 48 -106 -14 -98 -100 -135 -170 -73 -32 28 -35 36 -35 83 0 42 5 57 23 73 52 47 85 53 134 23z"/> <path d="M8238 5875 c-8 -18 -8 -31 1 -53 9 -20 9 -36 1 -56 -11 -30 -6 -46 14 -46 20 0 38 26 58 86 18 53 18 54 -2 74 -27 27 -58 25 -72 -5z"/> <path d="M9470 5881 c-14 -27 4 -71 28 -71 10 0 29 11 42 25 23 24 23 25 5 45 -23 25 -61 26 -75 1z"/> <path d="M6646 5855 c-4 -20 -5 -49 -2 -63 10 -45 -4 -54 -52 -35 -88 34 -201 -25 -218 -114 -28 -151 101 -268 230 -206 34 16 37 15 55 -1 11 -10 27 -16 36 -12 13 5 15 35 13 233 l-3 228 -26 3 c-23 3 -27 -1 -33 -33z m-63 -156 c48 -25 67 -51 67 -93 0 -108 -99 -161 -175 -95 -30 27 -35 37 -35 76 0 85 78 145 143 112z"/> <path d="M1792 5648 l3 -223 130 0 c149 0 194 15 228 73 17 29 18 38 7 78 -7 25 -21 49 -31 55 -25 13 -24 34 2 76 21 33 21 36 5 78 -28 72 -61 85 -217 85 l-129 0 2 -222z m264 137 c13 -20 15 -33 8 -58 l-10 -32 -88 -7 c-61 -5 -93 -4 -103 3 -13 12 -19 100 -6 112 3 4 46 7 94 7 84 0 89 -1 105 -25z m-1 -172 c31 -15 35 -21 35 -54 0 -61 -32 -79 -140 -79 -71 0 -89 3 -94 16 -10 27 -6 110 6 122 19 19 151 15 193 -5z"/> <path d="M4724 5855 c-11 -28 15 -44 78 -47 l61 -3 -2 -187 -2 -187 27 -7 c50 -13 55 10 53 206 l-3 175 62 5 c62 5 101 27 88 49 -5 7 -66 11 -182 11 -147 0 -176 -2 -180 -15z"/> <path d="M7692 5648 l3 -223 30 0 30 0 3 223 2 222 -35 0 -35 0 2 -222z"/> <path d="M9052 5648 l3 -223 145 0 145 0 0 30 0 30 -100 1 c-55 1 -106 2 -112 3 -10 1 -13 46 -13 191 l0 190 -35 0 -35 0 2 -222z"/> <path d="M7947 5834 c-4 -4 -7 -17 -7 -29 0 -12 -12 -32 -27 -45 l-26 -23 31 -26 c31 -25 32 -29 32 -101 0 -98 14 -144 49 -170 35 -24 93 -26 115 -4 18 18 19 24 7 42 -6 9 -19 11 -44 7 -33 -7 -38 -5 -47 20 -11 29 -14 164 -4 189 4 10 18 16 39 16 34 0 61 22 50 40 -3 5 -23 10 -45 10 -36 0 -39 2 -47 38 -7 31 -13 37 -39 40 -16 2 -33 0 -37 -4z"/> <path d="M2390 5759 c-69 -21 -120 -92 -120 -167 0 -91 87 -172 184 -172 60 0 115 28 116 58 0 30 -23 38 -52 18 -12 -9 -43 -16 -68 -16 -38 0 -52 5 -78 31 -55 53 -47 58 96 61 l127 3 2 40 c2 30 -4 50 -25 80 -43 62 -110 85 -182 64z m93 -61 c25 -13 46 -38 47 -54 0 -16 -159 -27 -177 -13 -10 9 -10 15 2 32 30 43 85 58 128 35z"/> <path d="M3211 5758 c-45 -16 -99 -73 -107 -115 -12 -61 1 -122 32 -155 86 -90 206 -88 277 6 23 29 27 45 27 96 0 41 -6 72 -17 91 -39 67 -137 102 -212 77z m107 -62 c33 -18 62 -66 62 -101 0 -35 -29 -83 -62 -101 -39 -22 -75 -16 -113 17 -31 27 -35 37 -35 78 0 87 80 145 148 107z"/> <path d="M3713 5763 c-12 -2 -27 -11 -34 -19 -10 -13 -14 -12 -30 2 -9 8 -28 14 -41 12 -23 -3 -23 -4 -26 -166 -2 -144 -1 -163 14 -169 38 -14 49 9 54 118 5 114 15 137 66 157 35 15 69 6 96 -25 14 -15 18 -42 20 -133 l3 -115 25 0 25 0 2 135 c3 128 2 136 -20 161 -36 40 -89 55 -154 42z"/> <path d="M5570 5759 c-69 -21 -120 -91 -120 -166 0 -127 137 -209 260 -156 30 13 40 23 40 41 0 30 -23 38 -52 18 -45 -32 -127 -15 -165 34 -28 35 -17 39 115 42 l127 3 2 40 c2 30 -4 50 -25 80 -43 61 -110 85 -182 64z m93 -60 c23 -10 55 -55 46 -63 -10 -8 -166 -14 -178 -7 -11 7 -11 13 3 32 31 45 82 60 129 38z"/> <path d="M6039 5752 c-31 -16 -37 -16 -60 -3 -14 8 -33 11 -42 8 -15 -6 -17 -26 -17 -159 0 -84 4 -159 9 -166 4 -8 19 -12 32 -10 24 3 24 5 27 118 3 126 9 141 68 160 27 9 40 8 69 -6 42 -20 44 -28 48 -164 2 -100 3 -105 24 -108 36 -5 46 36 40 161 -5 89 -9 112 -27 135 -39 49 -112 64 -171 34z"/> <path d="M6965 5763 c-66 -14 -105 -53 -105 -105 0 -42 53 -88 102 -88 45 0 108 -30 108 -51 0 -39 -93 -53 -151 -23 -38 19 -59 12 -59 -19 0 -18 9 -26 48 -40 70 -26 129 -22 177 11 35 24 40 33 43 71 2 30 -2 49 -14 62 -17 19 -89 46 -138 51 -16 2 -34 11 -40 21 -9 15 -7 22 13 38 27 22 60 24 108 7 28 -10 36 -10 49 4 27 26 10 44 -52 56 -31 7 -60 11 -63 11 -3 -1 -15 -3 -26 -6z"/> <path d="M8495 5758 c-53 -18 -75 -47 -75 -94 0 -37 5 -47 33 -68 19 -15 47 -26 63 -26 34 0 114 -35 114 -49 0 -40 -79 -53 -151 -24 -40 16 -42 15 -55 -2 -8 -10 -14 -22 -14 -26 0 -16 94 -49 137 -49 49 0 117 30 133 59 15 29 12 73 -8 96 -21 25 -97 55 -139 55 -23 0 -36 6 -44 22 -17 32 22 60 76 53 93 -13 100 -12 100 15 0 20 -7 27 -40 36 -49 15 -91 16 -130 2z"/> <path d="M9661 5756 c-7 -8 -2 -29 16 -66 83 -179 113 -248 113 -266 0 -16 -43 -64 -58 -64 -4 0 -22 4 -40 9 -26 8 -34 7 -42 -8 -6 -13 -5 -24 6 -39 24 -34 100 -31 139 6 30 27 38 41 95 167 18 39 40 88 50 110 44 94 60 137 54 146 -9 15 -40 10 -56 -8 -16 -19 -88 -184 -88 -202 0 -6 -4 -11 -9 -11 -16 0 -41 30 -41 49 0 10 -7 24 -15 31 -8 7 -15 18 -15 25 0 7 -7 26 -15 41 -8 16 -15 36 -15 45 0 31 -61 57 -79 35z"/> <path d="M10147 5758 c-43 -12 -70 -49 -49 -70 8 -8 26 -7 70 6 54 17 61 17 89 2 28 -14 43 -34 43 -57 0 -5 -24 -9 -54 -9 -103 0 -175 -43 -175 -105 0 -82 120 -135 200 -88 27 16 29 16 42 -1 7 -10 22 -17 33 -14 17 3 19 14 22 125 2 116 1 125 -22 162 -36 57 -105 74 -199 49z m160 -204 c2 -7 -6 -24 -19 -39 -31 -35 -99 -46 -128 -20 -26 23 -25 33 2 57 17 15 34 18 82 16 33 -2 61 -8 63 -14z"/> <path d="M10537 5757 c-16 -11 -17 -30 -15 -166 3 -134 5 -155 21 -165 12 -8 22 -8 35 0 14 9 18 32 23 125 4 63 7 115 8 116 0 2 19 12 42 23 34 18 46 19 74 10 18 -6 37 -19 41 -28 5 -9 11 -69 14 -132 l5 -115 30 0 30 0 3 121 c2 110 0 126 -19 158 -35 61 -107 80 -187 52 -35 -13 -42 -13 -53 0 -14 17 -30 18 -52 1z"/> <path d="M11090 5758 c-43 -12 -76 -41 -101 -90 -24 -47 -24 -94 0 -144 22 -46 35 -58 88 -85 144 -73 307 86 234 229 -44 86 -123 118 -221 90z m111 -71 c56 -38 64 -112 18 -170 -28 -37 -105 -39 -135 -4 -54 60 -47 132 16 175 41 28 59 28 101 -1z"/> <path d="M2673 5749 c-7 -7 -4 -22 13 -52 13 -23 26 -49 30 -57 3 -8 12 -30 20 -47 8 -18 22 -50 31 -70 9 -21 22 -50 30 -66 13 -25 12 -31 -8 -63 -22 -36 -23 -36 -74 -30 -42 5 -54 3 -59 -9 -10 -26 30 -55 74 -55 46 0 96 38 122 92 16 32 66 143 93 203 7 17 25 55 40 87 28 58 27 78 -4 78 -20 0 -51 -30 -51 -49 0 -7 -6 -25 -13 -39 -8 -15 -21 -42 -30 -60 -9 -19 -17 -39 -17 -45 0 -7 -4 -18 -9 -26 -10 -16 -51 2 -51 23 0 8 -13 44 -30 81 -16 37 -30 73 -30 81 0 26 -56 44 -77 23z"/> <path d="M5174 5747 c-2 -7 -3 -82 -2 -167 l3 -155 30 0 30 0 3 112 c3 111 3 112 33 137 17 14 39 26 49 26 23 0 44 26 36 45 -7 19 -55 19 -83 0 -18 -13 -22 -13 -33 0 -15 18 -59 20 -66 2z"/> <path d="M9472 5593 l3 -168 27 -3 27 -3 3 158 c2 87 1 164 -1 171 -2 6 -16 12 -32 12 l-29 0 2 -167z"/> <path d="M11443 5509 c-17 -6 -23 -16 -23 -37 0 -34 16 -52 46 -52 29 0 46 23 42 56 -3 31 -32 45 -65 33z"/> <path d="M7231 5486 c-11 -20 -10 -27 5 -45 37 -43 94 -11 80 45 -9 34 -67 34 -85 0z"/> </g> </svg> 